<svg width="27" height="27" viewBox="0 0 27 27" fill="none" xmlns="http://www.w3.org/2000/svg">
<path d="M23.9159 5.17722C22.8742 5.68764 21.8534 5.89493 20.7909 6.20847C19.6231 4.89076 17.8919 4.81784 16.2284 5.44076C14.5648 6.06368 13.4752 7.58659 13.4992 9.33347V10.3751C10.119 10.4616 7.10856 8.92201 5.16585 6.20847C5.16585 6.20847 0.809602 13.9512 9.33252 17.6668C7.38252 18.9658 5.43773 19.8418 3.08252 19.7501C6.52835 21.6283 10.2836 22.2741 13.5346 21.3303C17.2638 20.247 20.3284 17.4522 21.5044 13.2658C21.8552 11.9925 22.0294 10.6771 22.0221 9.35639C22.02 9.09701 23.595 6.46889 23.9159 5.17618V5.17722Z" stroke="white" stroke-width="1.5" stroke-linecap="round" stroke-linejoin="round"/>
</svg>
